PathFileType	4	(X/Y/Z)	OpenSim_Sub03_CSBaseline_Accel.trc
DataRate	CameraRate	NumFrames	NumMarkers	Units	OrigDataRate	OrigDataStartFrame	OrigNumFrames
100	100	37	8	m	100	8128	9288
Frame#	Time	torso_imu_offset_imu	pelvis_imu_offset_imu	tibia_r_imu_offset_imu	femur_r_imu_offset_imu	tibia_l_imu_offset_imu	femur_l_imu_offset_imu	toes_r_imu_offset_imu	toes_l_imu_offset_imu
				X1	Y1	Z1	X2	Y2	Z2	X3	Y3	Z3	X4	Y4	Z4	X5	Y5	Z5	X6	Y6	Z6	X7	Y7	Z7	X8		Y8	Z8	

8128	81.27000000	9.74544424	0.24810340	5.89542662	10.18324248	0.30523157	3.27788930	10.40134738	-1.68459319	0.26446653	10.28176557	0.12308488	0.33656000	3.26353470	-0.14417025	4.69728282	10.97300879	-0.10029904	0.65195712	5.05976933	-2.61759573	7.96408493	1.12064998	1.51609516	9.08366622
8129	81.28000000	9.51061418	0.33290203	5.88683059	10.09853355	0.44599448	3.36030161	10.43612896	-2.44205187	0.36047800	10.02030592	-0.22622176	0.04281187	3.73288322	-1.70483348	5.57069517	10.73561171	-0.68807649	0.72315010	5.13650053	-2.46369950	8.01696403	1.45899453	1.44133021	9.58634535
8130	81.29000000	9.26633997	0.36971812	5.86772166	9.89297180	0.58429124	3.38048823	10.23360762	-3.07384897	0.17092611	10.21471874	-0.47161297	-0.03012924	4.41808424	-4.60285642	4.52643303	10.84364080	-0.81727587	0.74860817	5.32020528	-2.31066242	7.97110972	2.24492082	1.62916153	10.50462451
8131	81.30000000	9.11613955	0.32203586	5.81405289	9.73593745	0.71160066	3.31243888	10.13351347	-2.38367242	0.38633635	10.22611344	-0.64493251	-0.04369586	4.56791933	-6.58852730	2.74772317	11.02464000	-0.69525721	0.93953791	5.37018951	-2.31463431	8.08247470	2.68544751	0.98529049	11.03341809
8132	81.31000000	9.08762274	0.21796736	5.83246394	9.39933959	0.59901222	3.15845932	10.12577662	-1.63108756	0.20403290	9.70136169	-0.64645499	0.02151931	3.80455044	-7.86501237	1.69660857	11.00554189	-0.20515032	1.16583108	5.57710537	-2.38317078	7.91625637	3.28386814	-0.62255949	11.20476948
8133	81.32000000	8.99767754	0.05504616	5.84148446	8.99343917	0.25399624	2.96746393	9.93769760	-1.36469527	0.07004016	9.52924245	-0.74778382	0.06566561	3.61034370	-8.10034528	1.31337860	10.86681041	0.31651566	1.32719127	5.96748741	-1.99270658	7.82467348	3.97258829	-2.38481747	11.21684999
8134	81.33000000	8.82481930	-0.16036975	5.82924071	8.80847732	-0.10739083	2.69742750	9.82030870	-0.74907602	0.00790670	9.38849174	-0.86617556	-0.05800603	3.94263619	-8.02251570	1.37660610	10.75150216	0.69336012	1.28658195	6.23552196	-1.82720902	7.69028972	4.14427574	-3.14604475	11.01064176
8135	81.34000000	8.65084171	-0.27142607	5.84379671	8.59342507	-0.70063581	2.50812208	9.75382513	-0.12049442	-0.19966096	9.40289073	-0.92255507	-0.29948822	4.17804301	-7.80642759	1.70982400	10.58418907	0.89807221	1.06139799	6.01062946	-2.05961429	7.61869666	4.14868686	-3.05652521	10.80577678
8136	81.35000000	8.54063072	-0.35637607	5.80710649	8.58418736	-1.13396185	2.38093974	9.70806277	0.47958560	-0.25058275	9.15471650	-0.99282509	-0.37946217	4.06908065	-7.43538511	1.93603876	10.50760140	0.89086013	0.92784971	6.04036541	-1.83225414	7.92662549	4.42844378	-2.94466294	10.70284900
8137	81.36000000	8.48543348	-0.44586961	5.83561089	8.80460313	-1.30739519	2.21561620	9.79074960	1.12474001	-0.20046145	9.30720462	-0.84121616	-0.44851228	4.06516855	-6.83781487	2.06536908	10.34846235	0.53078273	0.82096392	6.08186980	-1.68881763	7.96271140	5.03358216	-2.87949928	10.80610858
8138	81.37000000	8.47710839	-0.48188024	5.87167315	9.23975631	-1.25352284	2.12020886	9.90487786	1.47674355	-0.35214513	9.36665921	-0.48297450	-0.38017089	4.46847833	-6.08225662	2.31951823	9.83962943	0.03950439	0.58466753	6.04034245	-1.81439562	7.65070170	5.99606100	-2.78837144	11.19237302
8139	81.38000000	8.50669745	-0.50293606	5.93001684	9.66850231	-1.03984327	2.09634199	9.92916910	1.84155196	-0.43472946	9.29530254	-0.12953447	-0.06506103	5.09375236	-5.42788889	2.62323510	9.42885458	-0.47788354	0.41001029	6.31124062	-1.57515263	7.72840066	6.92248806	-2.70541369	11.54827241
8140	81.39000000	8.57471175	-0.51681074	5.88296635	9.86476446	-0.80257768	2.09544211	9.77443896	2.12994622	-0.35910045	9.16636846	0.13591412	0.13143832	5.49613963	-4.93311455	2.37173336	9.24118084	-0.92965314	0.43560729	6.26283076	-1.39715800	7.64541073	7.20214213	-2.36621142	11.58132002
8141	81.40000000	8.68961257	-0.62237438	5.94050403	9.84304712	-0.57373184	2.06886150	9.68887721	2.17083183	-0.15218184	9.02476880	0.46793800	0.20672451	5.47063033	-4.66289977	1.98417006	9.12869681	-1.15178491	0.48741550	6.34080390	-1.35603057	7.73684214	7.23999306	-1.69382852	11.52569455
8142	81.41000000	8.73707195	-0.72762120	5.89464688	9.71980355	-0.37096025	2.01119646	9.58487297	1.96333267	-0.16289608	9.22804652	0.67723639	0.18933387	5.39318767	-4.21608161	2.06361779	8.91120935	-1.14084303	0.38185397	6.35325531	-1.44656583	7.56405839	7.31700309	-0.87206467	11.51223139
8143	81.42000000	8.79661712	-0.73327666	5.92641048	9.51897435	-0.18083351	2.06830509	9.58382342	1.56062069	-0.26515958	9.35684201	0.79373189	0.30477952	5.68654796	-3.50327367	2.40699804	8.62694796	-0.90491463	0.18209753	6.47443276	-1.39783017	7.48087726	8.05711749	-0.36924341	11.83298589
8144	81.43000000	8.84502051	-0.68198628	6.00274859	9.35253060	-0.02560390	2.09343825	9.68055138	1.72203230	-0.38762190	9.54141844	0.96283089	0.32802738	6.42131907	-2.72114417	2.98378208	8.51187626	-0.57064985	0.00845700	6.18564465	-1.63277545	7.79929606	9.21751709	-0.01691783	12.34837799
8145	81.44000000	8.84761537	-0.67025032	6.05332034	9.23623903	0.18946551	2.12398628	9.74707730	2.06654543	-0.59253641	9.35232657	1.01131281	0.05485016	7.17037213	-2.25979245	3.41495368	8.42785694	-0.00791283	-0.14107207	6.12468412	-1.80676930	7.66792660	10.17672723	0.91359760	12.67431837
8146	81.45000000	8.95932865	-0.65957138	6.14402311	9.20164340	0.34121087	2.18276916	9.96351268	1.84079491	-0.62718769	9.78058061	1.00549477	-0.01219857	8.00326090	-2.05189026	3.60438268	8.29486775	0.51999854	-0.18989836	6.26666700	-1.70429654	7.68079933	10.82447188	1.75517869	12.67681868
8147	81.46000000	9.06544689	-0.71676183	6.13518149	9.24441361	0.52274277	2.14505043	9.91164993	1.60885151	-0.59787345	9.83263670	1.13795670	0.21906634	8.92027951	-2.04948925	3.40658120	8.13391011	1.06457203	-0.04826970	6.51299701	-1.46323721	7.51740735	11.18246478	1.97721030	12.43922646
8148	81.47000000	9.11358998	-0.66863746	6.18165480	9.37496697	0.64589824	2.08125938	9.83854903	1.43028959	-0.49075576	9.57869112	1.00996341	0.30173712	9.98993635	-2.33601240	2.72845675	8.11329481	1.45635226	0.25143020	6.30521952	-1.47377633	7.62546328	11.54104289	1.65776304	12.22213098
8149	81.48000000	9.06917497	-0.66648098	6.18877432	9.50186129	0.72282455	2.02827802	9.86234540	1.13134386	-0.53520889	9.76620966	0.65030397	0.21410534	11.09857352	-2.95589731	1.95967641	8.16480593	1.73001487	0.47224250	6.17845137	-1.66033510	7.73602490	12.30114316	1.02333265	12.20663085
8150	81.49000000	9.02926745	-0.62601313	6.17713898	9.61409994	0.78833477	1.85974627	10.04525466	1.00015155	-0.32598088	9.85104761	0.66898382	0.10194233	11.50842897	-3.64612790	1.26431828	8.31790222	1.95442838	0.58246862	6.18505067	-1.55784535	7.78888039	13.33854119	0.54573189	12.28407013
8151	81.50000000	9.01979863	-0.61660909	6.16605341	9.69678774	0.82713126	1.72672670	10.00248733	1.05147463	-0.22506028	9.97239958	0.45650490	0.01719212	11.97938562	-3.97733834	0.99096739	8.47193947	2.25610040	0.64228255	6.24837665	-1.28070635	7.78243589	14.52095963	0.32809197	12.40213225
8152	81.51000000	9.09294136	-0.56143195	6.16675503	9.69249795	0.96588507	1.64500130	10.07477099	1.21240848	-0.11853120	9.99195035	0.20557817	-0.00181568	12.74048797	-4.45374972	0.61005210	8.51983436	2.66271749	0.62183209	6.33055260	-1.24979717	7.71034905	15.40916692	-0.08833274	12.14330419
8153	81.52000000	9.12442543	-0.50819054	6.09169670	9.70311878	1.09779940	1.51362892	10.11465491	1.16394444	-0.19351920	10.01295091	0.07976455	-0.11870898	13.13612602	-5.05628059	0.17821631	8.41971873	3.06218590	0.51773652	6.34340322	-1.22702436	7.82410329	16.45967611	-0.99371327	11.43648417
8154	81.53000000	9.21438442	-0.46252901	6.02432232	9.53175130	0.98368143	1.39438053	10.30853806	0.96224983	-0.12451834	10.15500783	-0.01362379	-0.27758892	12.13625086	-4.71015203	0.56889982	8.42446469	3.50623176	0.31920059	6.31755384	-1.30485309	7.84986889	18.62395638	-0.69746189	11.21903682
8155	81.54000000	9.23014251	-0.39798639	5.92443654	9.46132661	1.24394158	1.29215431	10.37641475	0.74702763	-0.16230624	10.23565796	-0.22225610	-0.36412688	12.07427292	-4.20125305	0.69820001	8.32349499	3.96196583	0.17305828	6.35238340	-1.54332648	7.67142857	19.69387285	0.83291107	8.17276659
8156	81.55000000	9.28819879	-0.39441238	5.90142590	9.45522122	1.24417688	1.22555498	10.40778856	0.61371839	-0.29618320	10.21015730	-0.18475097	-0.35360920	12.76451079	-2.53718704	-0.03126197	8.60095271	4.32682743	0.31951403	6.54193420	-1.56125812	7.77918093	19.69802066	-0.99153501	1.63957191
8157	81.56000000	9.58603422	-0.31393141	5.97829966	9.48378091	1.10259219	1.24357416	10.46997347	0.56135376	-0.49357467	10.29703408	-0.57164706	-0.46497740	12.95881822	-0.93172390	0.44433364	9.17724011	4.50513804	0.70958603	6.37091734	-1.51772975	7.72215314	21.87534138	-2.70019600	0.96563521
8158	81.57000000	9.54361292	-0.24954928	5.85139824	9.61080521	0.77950042	1.17578764	10.62579745	0.43963213	-0.58657385	10.20136538	-0.93472194	-0.50471856	11.88637557	-2.43686502	0.25568721	9.24274027	4.65392817	1.19222566	6.44019022	-1.65806721	7.54101991	23.46620209	-0.63339297	2.25506990
8159	81.58000000	9.32757154	-0.27298266	5.84787652	9.80795790	0.46752289	0.95650994	10.47385991	0.55462176	-0.37130556	10.10358652	-0.94141573	-0.45198874	11.15589984	-2.98516644	-0.94848905	9.30596058	4.72350549	1.74273992	6.52220329	-1.53031405	7.58792048	21.85827447	0.45847185	1.36646453
8160	81.59000000	9.32037754	-0.28210024	5.80868939	9.85258950	0.44637412	0.94354416	10.34201771	0.61226553	-0.32641224	9.92030829	-1.01777329	-0.40419703	11.38962172	-3.28656959	-1.32678024	9.29003481	4.68393115	2.04300520	6.92444309	-1.31481129	7.26025603	17.69504711	-0.57389639	-1.51053980
8161	81.60000000	9.35200977	-0.23652447	5.75322349	9.83609929	0.60192727	0.98981149	10.27153221	0.10060588	-0.23818835	9.67158154	-1.07068193	-0.53830452	10.97860411	-2.97863646	-2.45607392	8.77567746	4.75677453	1.67687773	6.70032803	-1.12760317	7.39696519	17.32683126	-3.33585475	-5.04039844
8162	81.61000000	9.41654862	-0.20348673	5.76543381	9.74790970	0.74766384	1.05848335	10.09653452	-0.24474954	-0.09050947	9.60568019	-1.17983567	-0.63783215	10.15946910	0.09771259	-1.71310535	8.46312612	4.51713511	1.40618413	6.70975828	-1.35190487	7.43404378	18.85368140	-4.73017408	-9.03064154
8163	81.62000000	9.33082297	-0.22004022	5.78428356	9.54767634	0.69623183	1.09681213	10.05101248	-0.21758182	0.14694653	9.55213018	-1.29611483	-0.60092680	10.20164571	2.46280466	-0.51714617	8.80743475	4.20420842	1.11547644	6.85050223	-1.20318414	7.33238314	20.14107945	-4.05099845	-11.68078676
8164	81.63000000	9.25726253	-0.27280603	5.68142649	9.27053314	0.66742676	1.02371233	10.03599476	-0.17471308	0.39923629	9.67814249	-1.44358168	-0.42105627	9.94168168	1.76783411	-0.39122248	9.55605397	4.15602718	1.14067527	7.08388075	-1.08427713	7.13429158	20.80890030	-4.05172636	-13.65767228
